<svg xmlns="http://www.w3.org/2000/svg" viewBox="0 0 24 24" fill="none" stroke="currentColor" stroke-width="1.5" stroke-linecap="round" stroke-linejoin="round">
  <!-- Laurel Wreath for Contributors/Champions -->
  <path d="M12 21v-8"/>
  <path d="M8 4c-2 2-2 5 0 7 1 1 3 1 4 0"/>
  <path d="M16 4c2 2 2 5 0 7-1 1-3 1-4 0"/>
  <path d="M6 8c-2 1-3 4-1 6 1 1 3 1 4-1"/>
  <path d="M18 8c2 1 3 4 1 6-1 1-3 1-4-1"/>
  <path d="M5 13c-1 2 0 4 2 5 1 0 3-1 3-3"/>
  <path d="M19 13c1 2 0 4-2 5-1 0-3-1-3-3"/>
</svg>
